Tracklist:

1 All That She Wants

2 Wheel Of Fortune

3 Happy Nation

4 The Sign

5 Don't Turn Around

6 Living In Danger

7 Lucky Love

8 Beautiful Life

9 Never Gonna Say I'm Sorry

10 Life Is A Flower

11 Cruel Summer

12 Travel To Romantis

13 Always Have Always Will

14 C'est La Vie (Always 21)

15 Beautiful Morning

16 Lucky Love (Acoustic Version)

17 Unspeakable 



Format                                   : MPEG-4
Format profile                           : Base Media / Version 2
Codec ID                                 : mp42
File size                                : 1.28 GiB
Duration                                 : 59mn 15s
Overall bit rate mode                    : Variable
Overall bit rate                         : 3 094 Kbps

Video
ID                                       : 2
Format                                   : AVC
Format/Info                              : Advanced Video Codec
Format profile                           : High@L4.0
Format settings, CABAC                   : Yes
Format settings, ReFrames                : 4 frames
Codec ID                                 : avc1
Codec ID/Info                            : Advanced Video Coding
Duration                                 : 59mn 15s
Source duration                          : 59mn 18s
Bit rate mode                            : Variable
Bit rate                                 : 2 840 Kbps
Width                                    : 720 pixels
Height                                   : 540 pixels
Display aspect ratio                     : 4:3
Frame rate mode                          : Variable
Frame rate                               : 29.970 fps
Minimum frame rate                       : 29.940 fps
Maximum frame rate                       : 30.395 fps
Standard                                 : NTSC
Color space                              : YUV
Chroma subsampling                       : 4:2:0
Bit depth                                : 8 bits
Scan type                                : Progressive
Bits/(Pixel*Frame)                       : 0.244
Stream size                              : 1.18 GiB (92%)
Source stream size                       : 1.18 GiB (92%)
Language                                 : English
mdhd_Duration                            : 3555033
Color primaries                          : BT.601 NTSC
Transfer characteristics                 : BT.601
Matrix coefficients                      : BT.601

Audio
ID                                       : 1
Format                                   : AAC
Format/Info                              : Advanced Audio Codec
Format profile                           : LC
Codec ID                                 : 40
Duration                                 : 59mn 15s
Source duration                          : 59mn 18s
Bit rate mode                            : Variable
Bit rate                                 : 249 Kbps
Maximum bit rate                         : 381 Kbps
Channel(s)                               : 2 channels
Channel positions                        : Front: L R
Sampling rate                            : 48.0 KHz
Compression mode                         : Lossy
Stream size                              : 105 MiB (8%)
Source stream size                       : 105 MiB (8%)
Language                                 : English
mdhd_Duration                            : 3555117
